<svg id="Layer_1" data-name="Layer 1" xmlns="http://www.w3.org/2000/svg" viewBox="0 0 503.53 201.81"><defs><style>.cls-1{fill:#10137e;}.cls-2,.cls-4,.cls-5{fill:#fd1a14;}.cls-2,.cls-4{stroke:#ef172f;}.cls-2,.cls-3,.cls-4{stroke-miterlimit:3.86;fill-rule:evenodd;}.cls-2{stroke-width:7.06px;}.cls-3{fill:#fff;stroke:#fff;}.cls-3,.cls-4{stroke-width:7.12px;}</style></defs><polygon class="cls-1" points="228.66 36.86 246.44 36.86 246.44 45.81 237.6 45.81 237.6 52.66 246.44 52.66 246.44 62.44 237.93 62.44 237.93 81.07 228.66 81.07 228.66 36.86"/><path class="cls-1" d="M520.65,446.82h7v3.5s1.35-4.25,5-3.59v9.76s-4.85-.34-4.85,4.34v19.23h-7.28Z" transform="translate(-246.47 -399.08)"/><path class="cls-1" d="M536.79,446.81h6.4V449s.22.55.57-.09a5.53,5.53,0,0,1,4.52-2.74c2.55,0,4.78,2.74,4.78,2.74s.22.36.51.3a.5.5,0,0,0,.39-.34,5.91,5.91,0,0,1,4.78-2.74c3.16,0,5.88,3.77,5.88,7.57v26.4h-6V456.78s.17-3.31-2.34-3.31-2.4,3.52-2.4,3.52V480h-6.11V456.78s.31-3.31-2.09-3.31-2,3.31-2,3.31v23.27h-6.82Z" transform="translate(-246.47 -399.08)"/><path class="cls-1" d="M610.08,459.77H604.2v-2.95s.07-3.63-2.09-3.63-2.32,3.71-2.32,3.71v13.31s.2,3,2.32,3,2-2.69,2-2.69v-3.08h6.08v7.47s-.29,5.54-8.54,5.54-8.41-6.28-8.41-6.28v-19.6s-.16-8.39,8.61-8.39,8.27,6.94,8.27,6.94Z" transform="translate(-246.47 -399.08)"/><polygon class="cls-1" points="368.24 47.66 375.79 47.66 375.79 81.07 368.21 81.07 368.24 47.66"/><rect class="cls-1" x="368.43" y="36.88" width="7.39" height="8.55"/><path class="cls-1" d="M661.59,458.14h5.73v-6.36s-.15-5.61-8.18-5.61-8.07,7.08-8.07,7.08-.79,8.32,3.42,11.3a42.33,42.33,0,0,1,6.59,5.69s1.68,4.88-1.94,4.88-2.47-5.11-2.47-5.11h-5.6v5.85s.23,4.65,7.91,4.65,8.7-4.37,8.7-5.75,1.08-8.61-3-11.3c0,0-7.54-5-7.54-7.37s.15-3.95,2.32-3.95S661.67,453.82,661.59,458.14Z" transform="translate(-246.47 -399.08)"/><path class="cls-1" d="M696.35,478.56v1.55h5.42V436.16h-6.22V450s-2-4.8-6.16-3.78c-5.42,1.33-4.93,10-4.93,10v17.68s0,4.86,3.7,6.1C692.34,481.4,696.35,478.56,696.35,478.56Zm-5-8.91V458.34s-.35-3.26,2.11-3.26,1.88,3.4,1.88,3.4v11.61s.44,2.81-2,2.81S691.34,469.65,691.34,469.65Z" transform="translate(-246.47 -399.08)"/><path class="cls-1" d="M718.48,468.88v3.71s.39,2.53-1.89,2.46-2-2-2-2v-7h10.29V455.7s.45-9.55-8.25-9.55-8.91,9.48-8.91,9.48v18.19s.14,6.65,8.77,6.65,8.62-5,8.62-5v-6.61Zm-4.14-12.09s.07-2.69,2.4-2.69a2.5,2.5,0,0,1,2.46,2.4v3.94h-4.92Z" transform="translate(-246.47 -399.08)"/><rect class="cls-1" x="484.14" y="37.09" width="7.26" height="43.98"/><path class="cls-1" d="M484,578.25H502.7l-2.84-77.31H476.55l-38.81,77.28h18.68L465,562H484Zm-9.8-32,7.21-16.37.79,16.37Z" transform="translate(-246.47 -399.08)"/><path class="cls-1" d="M518.9,500.93h18.18L534.88,524s0,.38.89,0,10.86-3.55,16.89.38c6.32,4.14,6.69,7.09,6,12S553,578.22,553,578.22H534l5-37.85s.64-4.12-2.06-4.12-3.6,3.48-3.6,3.48l-5.55,38.52H509.63Z" transform="translate(-246.47 -399.08)"/><path class="cls-1" d="M621.9,523.87h17.78l-.4,1.81a.8.8,0,0,0,1.33-.12c.61-.9,6.15-4.52,13.1-1l-1.93,15.71s-13.65-1.16-14.94,9.29-3.17,28.69-3.17,28.69H615Z" transform="translate(-246.47 -399.08)"/><path class="cls-1" d="M659,523.87h17.79l-.4,1.81a.79.79,0,0,0,1.32-.12c.63-.9,6.16-4.52,13.11-1l-1.93,15.71s-13.64-1.16-15,9.29-3.16,28.69-3.16,28.69H652.05Z" transform="translate(-246.47 -399.08)"/><path class="cls-1" d="M605.41,567.18c3-5.68,4.11-19.93,4.26-24.74.14-4.38-.4-20.75-18.26-20.35s-22.47,9.26-25,13.53c-3.4,5.75-4.28,27.43-4.28,27.43.52,6.31,5.06,17.13,21.36,17.13S602.42,572.83,605.41,567.18Zm-22.09-1.43c-3.77-.48-2.61-6.39-2.61-6.39l2.44-16.46s1.47-6.09,5.4-5.54,2.93,6.38,2.93,6.38-1.52,14-2.7,17.46S587.1,566.2,583.32,565.75Z" transform="translate(-246.47 -399.08)"/><path class="cls-1" d="M732.47,567.18c3-5.68,4.15-19.93,4.27-24.74.14-4.38-.39-20.75-18.25-20.35s-22.48,9.26-25,13.53c-3.4,5.75-4.28,27.43-4.28,27.43.52,6.31,5,17.13,21.36,17.13S729.5,572.83,732.47,567.18Zm-22.09-1.43c-3.76-.48-2.6-6.39-2.6-6.39l2.46-16.46s1.46-6.09,5.39-5.54,2.91,6.38,2.91,6.38-1.51,14-2.69,17.46S714.15,566.2,710.38,565.75Z" transform="translate(-246.47 -399.08)"/><path class="cls-2" d="M275.7,459.22c36-49.65,107-70.73,144.05-41.26,36,28.66,31.85,76.94-4.2,126.56S310.31,609.9,279.89,587.18C242,558.84,239.64,508.83,275.7,459.22Z" transform="translate(-246.47 -399.08)"/><path class="cls-3" d="M256,557.67l74.77-144a110.15,110.15,0,0,1,54.28-10.85l33.1,139.9c-10.66,15.14-21.62,27.95-37.62,35.1l-4.76-29.88h-76.2l-19.11,39.65C269.66,580.24,258.89,566.61,256,557.67Z" transform="translate(-246.47 -399.08)"/><polygon class="cls-4" points="71.46 117.78 124.4 117.78 108.51 42.63 71.46 117.78"/><path class="cls-1" d="M506.91,446.15c-11.37,0-10.2,11-10.2,11H504s-.42-3.41,1.66-3.6c2.45-.22,2.28,1.33,2.28,1.33v2.6a25.77,25.77,0,0,0-6.28,3.35c-3.59,2.5-8.89,7.78-5.12,15.71s12.56,1.5,12.56,1.5v2.16h7.15V455S517.1,446.15,506.91,446.15Zm1,24.45c0,2.08-1.21,3.53-4,3.34s-3-3.05-1.5-5.55a8.57,8.57,0,0,1,5.54-3.68Z" transform="translate(-246.47 -399.08)"/><path class="cls-1" d="M579.69,446.15c-11.36,0-10.2,11-10.2,11h7.28s-.43-3.41,1.65-3.6c2.45-.22,2.28,1.33,2.28,1.33v2.6a25.48,25.48,0,0,0-6.26,3.35c-3.61,2.5-8.9,7.78-5.14,15.71s12.57,1.5,12.57,1.5v2.16H589V455S589.88,446.15,579.69,446.15Zm1.74,24.45c0,2.08-1.22,3.53-4,3.34s-3-3.05-1.5-5.55a8.56,8.56,0,0,1,5.55-3.68Z" transform="translate(-246.47 -399.08)"/><path class="cls-1" d="M637.91,446.15c-11.37,0-10.21,11-10.21,11H635s-.42-3.41,1.66-3.6c2.46-.22,2.27,1.33,2.27,1.33v2.6a25.77,25.77,0,0,0-6.28,3.35c-3.58,2.5-8.87,7.78-5.11,15.71s12.57,1.5,12.57,1.5v2.16h7.14V455S648.11,446.15,637.91,446.15Zm1.72,24.45c0,2.08-1.2,3.53-4,3.34s-3-3.05-1.51-5.55a8.55,8.55,0,0,1,5.54-3.68Z" transform="translate(-246.47 -399.08)"/><path class="cls-5" d="M414.82,571.65a6.58,6.58,0,0,1,3.18.84,6,6,0,0,1,2.43,2.39,6.66,6.66,0,0,1,.86,3.24,6.55,6.55,0,0,1-.85,3.22,6,6,0,0,1-2.4,2.39,6.54,6.54,0,0,1-6.45,0,6.13,6.13,0,0,1-2.4-2.39,6.56,6.56,0,0,1-.86-3.22,6.47,6.47,0,0,1,.88-3.24,6,6,0,0,1,2.42-2.39A6.65,6.65,0,0,1,414.82,571.65Zm0,1.08a5.48,5.48,0,0,0-2.66.7,5,5,0,0,0-2,2,5.35,5.35,0,0,0,0,5.38,5,5,0,0,0,2,2,5.45,5.45,0,0,0,2.69.72,5.39,5.39,0,0,0,2.68-.72,5,5,0,0,0,2-2,5.39,5.39,0,0,0,.72-2.68,5.53,5.53,0,0,0-.73-2.7,5,5,0,0,0-2-2A5.47,5.47,0,0,0,414.82,572.73Zm-2.85,9v-7h2.41a6.21,6.21,0,0,1,1.78.19,1.79,1.79,0,0,1,.88.68,1.83,1.83,0,0,1,.32,1,1.81,1.81,0,0,1-.55,1.32,2.15,2.15,0,0,1-1.45.64,1.85,1.85,0,0,1,.59.36,7.87,7.87,0,0,1,1,1.39l.85,1.36h-1.37l-.62-1.1a6,6,0,0,0-1.17-1.62,1.53,1.53,0,0,0-.9-.25h-.66v3Zm1.14-3.93h1.38a2.28,2.28,0,0,0,1.35-.29.93.93,0,0,0,.36-.77.89.89,0,0,0-.18-.55,1,1,0,0,0-.48-.37,3.56,3.56,0,0,0-1.14-.12h-1.29Z" transform="translate(-246.47 -399.08)"/><path class="cls-1" d="M743.52,577.13a6.65,6.65,0,0,1,3.19.84,5.87,5.87,0,0,1,2.42,2.39,6.5,6.5,0,0,1,0,6.46,6.06,6.06,0,0,1-2.4,2.39,6.54,6.54,0,0,1-6.45,0,6.06,6.06,0,0,1-2.4-2.39,6.46,6.46,0,0,1,0-6.46,5.89,5.89,0,0,1,2.43-2.39A6.61,6.61,0,0,1,743.52,577.13Zm0,1.08a5.45,5.45,0,0,0-2.65.7,5,5,0,0,0-2,2,5.43,5.43,0,0,0-.73,2.7,5.51,5.51,0,0,0,.71,2.68,5.13,5.13,0,0,0,2,2,5.37,5.37,0,0,0,5.37,0,5.1,5.1,0,0,0,2-2,5.41,5.41,0,0,0,.71-2.68,5.52,5.52,0,0,0-.72-2.7,5,5,0,0,0-2-2A5.51,5.51,0,0,0,743.52,578.21Zm-2.84,9v-7h2.4a5.83,5.83,0,0,1,1.78.19,1.73,1.73,0,0,1,.88.67,1.77,1.77,0,0,1,.33,1,1.84,1.84,0,0,1-.55,1.33,2.12,2.12,0,0,1-1.45.63,2.21,2.21,0,0,1,.59.37,8.69,8.69,0,0,1,1,1.38l.85,1.37h-1.37l-.62-1.1a6,6,0,0,0-1.17-1.62,1.46,1.46,0,0,0-.9-.25h-.66v3Zm1.14-3.93h1.38a2.27,2.27,0,0,0,1.34-.29,1,1,0,0,0,.36-.77.93.93,0,0,0-.17-.56,1.09,1.09,0,0,0-.48-.36,3.65,3.65,0,0,0-1.14-.12h-1.29Z" transform="translate(-246.47 -399.08)"/></svg>